<svg width="203" height="25" fill="none" xmlns="http://www.w3.org/2000/svg"><path d="M23.996 17.559c0 .411.124.781.618.781h2.554c.515 0 .639-.37.639-.822V9.746a9.602 9.602 0 0 0-.103-1.44 4.38 4.38 0 0 0-.31-1.11 2.93 2.93 0 0 0-.514-.822 4.216 4.216 0 0 0-.721-.617 6.581 6.581 0 0 0-.927-.473 7.233 7.233 0 0 0-1.01-.308 6.977 6.977 0 0 0-1.194-.165c-.432-.04-.927-.04-1.462-.04-3.564 0-5.603 1.11-6.097 3.33a.565.565 0 0 0 .535.74h2.204c.577 0 .556-.185.824-.699a1.45 1.45 0 0 1 .515-.699c.412-.329 1.05-.473 1.895-.473.803 0 1.4.165 1.771.473.371.308.577.781.64 1.419 0 .74-.228 1.213-1.134 1.213-2.183-.082-4.531.164-5.85.905-1.318.74-2.08 2.2-2.08 3.762-.008.58.112 1.156.35 1.686.227.472.558.887.968 1.213.437.345.943.59 1.483.72.61.17 1.241.252 1.875.247a8.428 8.428 0 0 0 2.513-.35c.72-.226 1.853-1.007 1.998-1.13v.431h.02zm-.082-2.755s-.66 1.357-3.007 1.357a2.723 2.723 0 0 1-1.586-.432c-.412-.288-.598-.74-.598-1.357 0-.802.33-1.357.989-1.686.66-.329 1.977-.514 2.966-.493.989.02 1.256.637 1.256 1.069-.02.185-.02 1.542-.02 1.542zM.865 18.32h2.637c.72 0 .638-.761.638-.761v-2.18c-1.874-.72-3.11-1.603-3.955-2.467v4.647s-.061.76.68.76zM14.542 5.572a6.458 6.458 0 0 0-.206-1.707 5.247 5.247 0 0 0-.66-1.521 4.049 4.049 0 0 0-1.111-1.172 5.566 5.566 0 0 0-1.442-.72 8.771 8.771 0 0 0-1.751-.37A31.305 31.305 0 0 0 7.312 0H1.298C.762 0 .185.35.185 1.007v9.623c.762 1.624 2.246 3.33 3.935 4.133V12.85c0-1.008.762-1.234 1.091-1.234h1.772c2.45 0 4.325-.514 5.602-1.522 1.318-1.007 1.957-2.508 1.957-4.523zm-4.367 1.707c-.21.353-.517.64-.885.822a3.54 3.54 0 0 1-1.298.329 18.01 18.01 0 0 1-1.504.062H4.8c-.412 0-.68-.33-.68-.823V3.763a.577.577 0 0 1 .64-.617h1.73c.555 0 1.09.02 1.585.04.44.028.873.132 1.277.31.359.162.655.436.845.78.206.35.309.844.309 1.502.03.52-.084 1.04-.33 1.5zm20.763 13.344c-.206 0-.412-.021-.618-.042-.247-.04-.721.021-.721.412v1.789c0 .678.33.74.515.78a7.897 7.897 0 0 0 1.668.165 4.64 4.64 0 0 0 1.936-.39 4.756 4.756 0 0 0 1.463-1.11 8.199 8.199 0 0 0 1.133-1.707c.33-.658.638-1.378.947-2.18 0 0 .124-.35.35-.945-.659.637-3.707 3.495-6.673 3.228zM41.34 5.058h-2.35a.961.961 0 0 0-.988.72l-2.678 7.381s-2.39-6.723-2.575-7.237c-.185-.514-.494-.864-1.05-.864h-2.163c-.762 0-.762.596-.66.822.083.185 3.05 8.204 4.182 11.268.268.72.371.946.371 1.213 0 .267-.268.822-.453 1.151-.086.15-.19.287-.31.412 2.205-.658 4.759-3.023 6.077-5.593 1.298-3.578 3.028-8.327 3.11-8.553.083-.391.083-.72-.514-.72z" fill="#232225"/><path d="M71.865 8.019c-1.38 0-2.327.946-2.492 2.488h4.923c-.145-1.357-.886-2.488-2.43-2.488z" fill="#00656F"/><path d="M82.246 10.466c-.453-.638-3.645-4.647-4.716-5.737-1.257-1.295-2.37-1.912-3.605-1.912H47.539c-2.389 0-3.192.802-3.192 3.536V17.23c0 2.673.206 3.866 3.707 3.866h25.87c1.237 0 2.493-.967 3.42-1.954 1.071-1.11 4.367-4.605 4.923-5.51a3.016 3.016 0 0 0-.02-3.166zm-35.51-3.804c.02-.432.062-.7.556-.7h2.163c.577 0 .597.35.597.7v.082c-1.091.617-2.245 1.295-3.316 2.796V6.662zm17.26 10.98h-2.265c-.597 0-.535-.535-.535-.68V10.28c0-.76-.103-1.315-.33-1.624a1.2 1.2 0 0 0-1.071-.493c-1.195 0-2.019 1.233-2.43 1.727v7.093c0 .185.061.638-.64.638h-2.224c-.597 0-.535-.535-.535-.679V10.26c0-.76-.103-1.316-.33-1.624-.226-.309-.556-.494-1.05-.494-1.257 0-2.04 1.234-2.43 1.727v7.094c0 .185.061.637-.64.637h-2.265c-.597 0-.536-.535-.536-.678v-4.38c0-2.878 3.605-5.675 3.79-5.86a5.126 5.126 0 0 1 3.07-1.048 4.202 4.202 0 0 1 2.162.493c.58.369 1.021.918 1.257 1.563.5-.597 1.09-1.11 1.75-1.522a3.805 3.805 0 0 1 2.019-.534c2.554 0 3.831 1.439 3.831 4.317v6.991c.041.247.103.7-.597.7zm12.689-5.182h-7.333c.041 1.912.989 2.94 2.637 2.94 1.009 0 1.606-.432 2.121-1.275a.803.803 0 0 1 .68-.35h1.895a.413.413 0 0 1 .412.453c-.803 2.138-2.74 3.331-5.108 3.331-3.46 0-5.747-2.323-5.747-5.819 0-3.433 2.369-5.942 5.623-5.942 3.255 0 5.397 2.22 5.52 5.798.02.453-.123.864-.7.864z" fill="#00656F"/><path d="M115.367 13.519c0 2.52-1.297 4.098-3.718 4.098-2.42 0-3.717-1.58-3.717-4.098V5.183h-1.648v8.37c0 3.363 1.786 5.569 5.355 5.569 3.57 0 5.376-2.172 5.376-5.603V5.14h-1.648v8.379zm9.261-4.832c0-1.295 1.123-2.171 2.7-2.171a4.932 4.932 0 0 1 3.788 1.645l.983-1.26c-1.088-1.234-2.666-1.927-4.666-1.927-2.595 0-4.531 1.54-4.531 3.816 0 4.902 7.788 2.942 7.788 6.479 0 1.05-.737 2.345-3.09 2.345a5.454 5.454 0 0 1-4.14-1.961l-.982 1.295c1.108 1.263 2.782 2.174 5.063 2.174 3.542 0 4.84-2.032 4.84-4.028.035-5.112-7.753-3.327-7.753-6.407zm-26.767 3.115c1.193-.28 2.316-1.4 2.316-3.152 0-2.056-1.403-3.495-3.683-3.495H90.63v13.687h5.998c2.42 0 3.788-1.505 3.788-3.711.006-1.577-1.152-3.082-2.555-3.329zm-5.584-5.111h3.935c1.472 0 2.28.98 2.28 2.206 0 1.26-.773 2.206-2.28 2.206h-3.935V6.69zm4 10.68h-4v-4.728h4.035c1.613 0 2.456 1.12 2.456 2.346-.03 1.472-.942 2.38-2.486 2.38l-.004.003zm97.567-8.684c0-1.295 1.123-2.171 2.701-2.171a4.932 4.932 0 0 1 3.788 1.645l.982-1.26c-1.087-1.234-2.665-1.927-4.665-1.927-2.596 0-4.532 1.54-4.532 3.816 0 4.902 7.788 2.942 7.788 6.479 0 1.05-.737 2.345-3.089 2.345a5.455 5.455 0 0 1-4.141-1.961l-.982 1.295c1.1 1.263 2.783 2.174 5.063 2.174 3.543 0 4.84-2.032 4.84-4.028.035-5.112-7.753-3.327-7.753-6.407zm-14.803 0c0-1.295 1.122-2.171 2.7-2.171a4.932 4.932 0 0 1 3.788 1.645l.983-1.26c-1.088-1.234-2.666-1.927-4.666-1.927-2.595 0-4.531 1.54-4.531 3.816 0 4.902 7.788 2.942 7.788 6.479 0 1.05-.738 2.345-3.09 2.345a5.459 5.459 0 0 1-4.14-1.961l-.983 1.295c1.098 1.263 2.781 2.174 5.061 2.174 3.543 0 4.841-2.032 4.841-4.028.029-5.112-7.751-3.327-7.751-6.407zm-39.294-3.504h-1.648v13.692h1.648V5.183zm23.506 13.694h8.63V17.37h-6.98v-4.727h6.84v-1.505h-6.84V6.725h6.98V5.218h-8.63v13.659zm-7.928-2.977l-7.578-10.717h-1.683v13.694h1.648V7.951l7.683 10.926h1.58V5.183h-1.65V15.9z" fill="#232225"/></svg>