<svg xmlns="http://www.w3.org/2000/svg"><symbol id="ic_adapt" viewBox="0 0 68.03 68.03" xmlns="http://www.w3.org/2000/svg"><defs><style>.acls-1{fill:#c4c4c4}</style></defs><path class="acls-1" d="M13 27.11a6.22 6.22 0 1 1 6.22-6.22A6.23 6.23 0 0 1 13 27.11zm0-9.17a2.95 2.95 0 1 0 3 2.95 2.95 2.95 0 0 0-3-2.94zM56.46 45a6.22 6.22 0 1 1 5.87-4.14A6.23 6.23 0 0 1 56.46 45zm0-9.17a2.95 2.95 0 1 0 1 .17 3 3 0 0 0-.99-.16zM21.76 60A6.22 6.22 0 1 1 28 53.8a6.23 6.23 0 0 1-6.24 6.2zm0-9.17a2.95 2.95 0 1 0 2.95 2.95 2.95 2.95 0 0 0-2.95-2.93zm20.3-28.63a6.22 6.22 0 1 1 6.22-6.2 6.23 6.23 0 0 1-6.22 6.2zm0-9.17A2.95 2.95 0 1 0 45 16a2.95 2.95 0 0 0-2.94-3z"/><path class="acls-1" transform="rotate(-57.38 20.884 26.294)" d="M19.25 19.82h3.27v12.96h-3.27z"/><path class="acls-1" transform="rotate(-59.72 26.018 46.84)" d="M20.93 45.2H31.1v3.27H20.93z"/><path class="acls-1" transform="rotate(-78.97 47.996 37.333)" d="M46.36 32.15h3.27v10.37h-3.27z"/><path class="acls-1" transform="rotate(-65.86 38.698 23.376)" d="M35.7 21.74h6.01v3.27H35.7z"/><path class="acls-1" d="M33.65 44.41a10.48 10.48 0 1 1 10.48-10.48 10.49 10.49 0 0 1-10.48 10.48zm0-17.68a7.2 7.2 0 1 0 7.2 7.2 7.21 7.21 0 0 0-7.2-7.2z"/></symbol><symbol id="ic_autopay" viewBox="0 0 68.03 68.03" xmlns="http://www.w3.org/2000/svg"><defs><style>.bcls-1{fill:#c4c4c4}</style></defs><path class="bcls-1" d="M56.73 8.76H12.24a1.95 1.95 0 1 0 0 3.9h1.89v42.66A1.95 1.95 0 0 0 17 57l8.19-4.39 8.51 4.4a2 2 0 0 0 1.79 0l8.5-4.4L52 57a1.95 1.95 0 0 0 2.89-1.71V12.66h1.89a1.95 1.95 0 1 0 0-3.9zM50.94 52l-6-3.29a2 2 0 0 0-1.83 0l-8.53 4.41-8.52-4.41a1.95 1.95 0 0 0-1.82 0L18 52.07V12.66h32.94z"/><path class="bcls-1" d="M22.79 22.73h12.75a1.95 1.95 0 1 0 0-3.9H22.79a1.95 1.95 0 0 0 0 3.9zm0 9.27h23.39a1.95 1.95 0 0 0 0-3.9H22.79a1.95 1.95 0 0 0 0 3.9zm0 9.89h23.39a1.95 1.95 0 0 0 0-3.9H22.79a1.95 1.95 0 0 0 0 3.9z"/></symbol><symbol id="ic_card" viewBox="0 0 68.03 68.03" xmlns="http://www.w3.org/2000/svg"><defs><style>.ccls-1{fill:#c4c4c4}</style></defs><path class="ccls-1" d="M44.21 47.06h8.43a1.77 1.77 0 0 0 0-3.54h-8.43a1.77 1.77 0 0 0 0 3.54zm-9.43 0h4.91a1.77 1.77 0 0 0 0-3.54h-4.91a1.77 1.77 0 0 0 0 3.54z"/><path class="ccls-1" d="M56.07 14.54H14a5 5 0 0 0-4.94 4.94v30.83A5 5 0 0 0 14 55.25h42.07A5 5 0 0 0 61 50.31V19.48a5 5 0 0 0-4.93-4.94zm1.19 22.15v13.62a1.19 1.19 0 0 1-1.19 1.19H14a1.19 1.19 0 0 1-1.19-1.19V36.69zm0-9.2v5.44H12.82v-5.44zm0-8v4.26H12.82v-4.27A1.19 1.19 0 0 1 14 18.29h42.07a1.19 1.19 0 0 1 1.19 1.19z"/></symbol><symbol id="ic_en" viewBox="0 0 47.01 46.8" xmlns="http://www.w3.org/2000/svg"><defs><style>.dcls-3{fill:#ef081f}</style></defs><circle cx="23.54" cy="23.44" r="23.29" fill="#fff"/><path d="M16.29 1.31A23.32 23.32 0 0 0 5.4 8.84l10.89 5.76zM5.18 37.77a23.32 23.32 0 0 0 11.11 7.81V31.9zm36.7-28.68a23.34 23.34 0 0 0-10.42-7.55V14.6zM31.46 45.35a23.34 23.34 0 0 0 10.64-7.83L31.46 31.9z" fill="#001f80"/><path class="dcls-3" d="M11.42 16.55l-8.29-4.33a23.18 23.18 0 0 0-1.2 2.53l3.43 1.8zm24.91 13.34l8 4.15a23.15 23.15 0 0 0 1.13-2.57l-3-1.59zm-20.02 0h-5l-8.39 4.39a23.27 23.27 0 0 0 1.44 2.39l11.94-6.24zm15.17-13.33h5.2l7.47-4a23.27 23.27 0 0 0-1.43-2.36l-11.24 5.91z"/><path class="dcls-3" d="M46.45 19.24H28.39V.66a23.25 23.25 0 0 0-9.1-.11v18.69H.64a23.16 23.16 0 0 0-.08 8h18.73v19.1a23.25 23.25 0 0 0 9.1-.11v-19h18.14a23.16 23.16 0 0 0-.08-8z"/></symbol><symbol viewBox="0 0 68.03 68.03" id="ic_fb" xmlns="http://www.w3.org/2000/svg"><path d="M54.36 10.9H15.18a4.33 4.33 0 0 0-4.32 4.32v39.19a4.33 4.33 0 0 0 4.32 4.32h39.18a4.33 4.33 0 0 0 4.32-4.32V15.23a4.33 4.33 0 0 0-4.32-4.33zm.54 43.51a.54.54 0 0 1-.54.54H43.14V39.78h5.73l.86-6.65h-6.59v-4.24c0-1.92.53-3.24 3.29-3.24H50v-5.94a47.05 47.05 0 0 0-5.13-.26c-5.07 0-8.55 3.1-8.55 8.79v4.9h-5.79v6.65h5.74v15.16H15.18a.54.54 0 0 1-.54-.54V15.23a.54.54 0 0 1 .54-.54h39.18a.54.54 0 0 1 .54.54z" fill="#c4c4c4"/></symbol><symbol id="ic_go" viewBox="0 0 68.03 68.03" xmlns="http://www.w3.org/2000/svg"><defs><style>.fcls-1{fill:#c4c4c4}</style></defs><path class="fcls-1" d="M12.51 42.66a11.78 11.78 0 0 1-2.62-7.86 11.81 11.81 0 0 1 2.62-7.88 9 9 0 0 1 7.23-3.05A9 9 0 0 1 27 26.91a10.46 10.46 0 0 1 1.92 3.4l.07.2h4.22l-.1-.38a13.74 13.74 0 0 0-3.19-5.87 13.28 13.28 0 0 0-10.15-4.06 13.17 13.17 0 0 0-10.16 4.07 14.87 14.87 0 0 0-3.79 10.52A14.82 14.82 0 0 0 9.6 45.31a12.07 12.07 0 0 0 4.76 3.17h.13l.12-.07a25 25 0 0 0 3.49-2.33l.54-.43-.64-.05a8.57 8.57 0 0 1-5.49-2.94zM58.05 39l.7-.57a11.27 11.27 0 0 0 3.91-5v-.11A14.49 14.49 0 0 0 59 24.27a13.28 13.28 0 0 0-10.15-4.06 13.17 13.17 0 0 0-10.13 4.06 14.87 14.87 0 0 0-3.82 10.52 14.82 14.82 0 0 0 3.78 10.52 13.17 13.17 0 0 0 10.13 4.06A13.28 13.28 0 0 0 59 45.31a13.42 13.42 0 0 0 2.48-3.8l.48-1.12-1 .76a20.76 20.76 0 0 1-6.68 3.59 16.31 16.31 0 0 1-4.45.95h-1a9 9 0 0 1-7.23-3.07 11.78 11.78 0 0 1-2.6-7.83 11.81 11.81 0 0 1 2.62-7.88 9 9 0 0 1 7.23-3.05A9 9 0 0 1 56 26.91a11.81 11.81 0 0 1 2.62 7.88 13.93 13.93 0 0 1-.4 3.35z"/><path class="fcls-1" d="M19.8 38.76H29a10.76 10.76 0 0 1-1.15 2.66 21.3 21.3 0 0 1-7.19 7.35l-1 .63 1.2-.07a13 13 0 0 0 9.05-4 13.71 13.71 0 0 0 3.34-6.53v-3.68H19.8z"/></symbol><symbol id="ic_help" viewBox="0 0 30 30" xmlns="http://www.w3.org/2000/svg"><defs><style/></defs><path class="gcls-1" d="M15.05 3.54a11.64 11.64 0 0 0-11 15.66.94.94 0 0 0 .07.34 1 1 0 0 0 .14.23A11.67 11.67 0 1 0 15.05 3.54zm7 11.67a7 7 0 0 0-.3-2l2.61-1.09a9.76 9.76 0 0 1-4.67 11.78l-1.1-2.62A7 7 0 0 0 22 15.22zM8.92 18.56A7 7 0 0 0 16.86 22L18 24.59a9.78 9.78 0 0 1-11.69-4.93zM21 11.5a6.94 6.94 0 0 0-7.73-3l-1.1-2.62a9.79 9.79 0 0 1 11.47 4.53zm-5.9-1.41a5.13 5.13 0 1 1-5.13 5.13 5.13 5.13 0 0 1 5.08-5.13zm-3.6-.88a7 7 0 0 0-3.44 6 6.93 6.93 0 0 0 .19 1.6l-2.63 1.12A9.79 9.79 0 0 1 10.4 6.58z"/></symbol><symbol id="ic_invoice" viewBox="0 0 68.03 68.03" xmlns="http://www.w3.org/2000/svg"><defs><style>.hcls-1{fill:#c4c4c4}</style></defs><path class="hcls-1" d="M51.53 9.89h-28.4a5.91 5.91 0 0 0-5.9 5.9v1.41a15.37 15.37 0 0 0 0 29.85v5.8a5.91 5.91 0 0 0 5.9 5.9h28.4a5.91 5.91 0 0 0 5.9-5.9V15.79a5.91 5.91 0 0 0-5.9-5.9zM8.6 32.13a12.31 12.31 0 1 1 12.31 12.31A12.33 12.33 0 0 1 8.6 32.13zm45.75 20.73a2.83 2.83 0 0 1-2.83 2.83H23.13a2.83 2.83 0 0 1-2.83-2.83v-5.37h.61a15.34 15.34 0 0 0 11.56-5.26 1.54 1.54 0 0 0 .33 0h9.51a1.54 1.54 0 1 0 0-3.08h-7.75a15.28 15.28 0 0 0 1.73-6.72h11.4a1.54 1.54 0 0 0 0-3.08H36.05a15.29 15.29 0 0 0-2.31-5.78h10.35a1.54 1.54 0 0 0 0-3.08H31a15.31 15.31 0 0 0-10.13-3.83h-.61v-1A2.83 2.83 0 0 1 23.13 13h28.4a2.83 2.83 0 0 1 2.83 2.83z"/><path class="hcls-1" d="M47.68 47.13H25.95a1.54 1.54 0 0 0 0 3.08h21.73a1.54 1.54 0 0 0 0-3.08zM22.32 25.2a1.54 1.54 0 0 0-2.18 2.18L23.81 31H13.67a1.54 1.54 0 0 0 0 3.08h10.14l-3.74 3.74A1.54 1.54 0 0 0 22.25 40l6.37-6.37a1.54 1.54 0 0 0 0-2.18z"/></symbol><symbol id="ic_payme" viewBox="0 0 68.03 68.03" xmlns="http://www.w3.org/2000/svg"><defs><style>.icls-1{fill:#c4c4c4}</style></defs><path class="icls-1" d="M55.09 44.72a3.28 3.28 0 0 1 0 3.47 80.06 80.06 0 0 1-5.41 6c-1 1.07-2.4 2.13-3.76 2.13H17.47c-3.85 0-4.08-1.3-4.08-4.24V40.19c0-3 .89-3.87 3.52-3.87h29c1.36 0 2.57.69 4 2.1 1.17 1.2 4.69 5.58 5.18 6.3z"/><path d="M19.85 40.93v-.08c0-.38 0-.76-.66-.76H16.8c-.55 0-.59.31-.59.78V44a10 10 0 0 1 3.64-3.07zM35.8 52.32v-7.75q0-4.77-4.21-4.77a4.2 4.2 0 0 0-2.21.6 8 8 0 0 0-1.93 1.68 3.35 3.35 0 0 0-1.37-1.73 4.52 4.52 0 0 0-2.37-.55 5.51 5.51 0 0 0-3.36 1.15c-.21.21-4.16 3.31-4.16 6.49v4.86c0 .15-.07.74.58.74h2.48c.77 0 .69-.5.69-.71v-7.86c.42-.55 1.27-1.92 2.66-1.92a1.27 1.27 0 0 1 1.15.54 3.45 3.45 0 0 1 .35 1.81v7.36c0 .15-.07.74.58.74h2.45c.77 0 .7-.5.7-.71v-7.82c.45-.55 1.34-1.92 2.66-1.92a1.31 1.31 0 0 1 1.17.54 3.4 3.4 0 0 1 .34 1.8v7.37c0 .15-.07.74.58.74h2.48c.82 0 .74-.47.74-.68zm13.64-3.08a5.67 5.67 0 0 1-5.6 3.68c-3.79 0-6.29-2.57-6.29-6.43s2.6-6.57 6.17-6.57 5.91 2.45 6.06 6.41c0 .51-.13 1-.76 1H41c0 2.12 1.07 3.26 2.88 3.26a2.5 2.5 0 0 0 2.33-1.4.89.89 0 0 1 .75-.38H49a.42.42 0 0 1 .44.43zm-5.72-6.87A2.76 2.76 0 0 0 41 45.13h5.38c-.16-1.5-.97-2.76-2.66-2.76z" fill="#fff"/><path class="icls-1" d="M27.85 15.18a4.5 4.5 0 0 0-1.17-1.25 5.81 5.81 0 0 0-1.52-.76 8.66 8.66 0 0 0-1.86-.38 21.51 21.51 0 0 0-2.17-.1h-6.37a1.1 1.1 0 0 0-1.17 1.08V24a9.71 9.71 0 0 0 4.16 4.4v-2a1.19 1.19 0 0 1 1.15-1.32h1.88a9.36 9.36 0 0 0 5.93-1.63 5.79 5.79 0 0 0 2-4.83 7.56 7.56 0 0 0-.21-1.83 5.69 5.69 0 0 0-.65-1.61zm-3.71 5.28a2.22 2.22 0 0 1-.94.88 3.82 3.82 0 0 1-1.36.36q-.77.07-1.59.07h-1.79c-.44 0-.71-.35-.71-.88v-4.2a.62.62 0 0 1 .68-.67h1.82q.89 0 1.67.05a3.67 3.67 0 0 1 1.35.33 2 2 0 0 1 .9.84 3.22 3.22 0 0 1 .32 1.59 3.21 3.21 0 0 1-.35 1.63zm-6.39 8.65a11.51 11.51 0 0 1-4.16-2.64v5a.71.71 0 0 0 .72.81h2.78c.76 0 .67-.81.67-.81s-.01-1.16-.01-2.35zm39.33-11h-2.49a1 1 0 0 0-1 .77l-2.84 7.89L48 19a1.15 1.15 0 0 0-1.11-.92h-2.31c-.81 0-.81.63-.71.88s3.22 8.77 4.41 12a4.77 4.77 0 0 1 .4 1.29 3.34 3.34 0 0 1-.48 1.23 3.12 3.12 0 0 1-.32.44c2.34-.7 5-3.23 6.43-6 1.38-3.83 3.2-8.88 3.28-9.14.13-.35.13-.69-.51-.69zm-11 16.6a6 6 0 0 1-.65 0c-.26 0-.75 0-.75.44V37c0 .73.35.78.54.82A8.18 8.18 0 0 0 47 38a4.62 4.62 0 0 0 2-.43 4.91 4.91 0 0 0 1.54-1.19 8.41 8.41 0 0 0 1.19-1.81q.52-1.05 1-2.32l.36-1c-.64.68-3.87 3.75-7.01 3.44zm-3.74-14.34a3.33 3.33 0 0 0-.55-.88 3.84 3.84 0 0 0-.77-.66 5.65 5.65 0 0 0-1-.51A7.31 7.31 0 0 0 39 18a8.69 8.69 0 0 0-1.26-.18q-.69-.05-1.54-.05-5.66 0-6.45 3.57a.6.6 0 0 0 .56.78h2.32c.61 0 .58-.19.87-.74a1.63 1.63 0 0 1 .55-.75 3.26 3.26 0 0 1 2-.51 2.85 2.85 0 0 1 1.87.5 2.18 2.18 0 0 1 .68 1.51c0 .78-.24 1.3-1.19 1.3-2.31-.08-4.79.18-6.19 1a4.58 4.58 0 0 0-2.19 4 4.13 4.13 0 0 0 .37 1.8 3.61 3.61 0 0 0 1 1.29 4.42 4.42 0 0 0 1.6.78 7.27 7.27 0 0 0 2 .26 8.61 8.61 0 0 0 2.66-.38A10 10 0 0 0 38.75 31v.44c0 .44.13.83.66.83h2.7c.55 0 .67-.39.67-.87v-8.31a10.21 10.21 0 0 0-.1-1.54 4.84 4.84 0 0 0-.34-1.18zm-3.68 8.13s-.7 1.44-3.18 1.44a2.79 2.79 0 0 1-1.67-.46 1.65 1.65 0 0 1-.65-1.48 1.84 1.84 0 0 1 1-1.79 8 8 0 0 1 3.13-.52c1 0 1.32.68 1.32 1.14z"/></symbol><symbol id="ic_qr" viewBox="0 0 68.03 68.03" xmlns="http://www.w3.org/2000/svg"><defs><style>.jcls-1{fill:#c4c4c4}</style></defs><path class="jcls-1" d="M26.62 9.1H15.2A6.21 6.21 0 0 0 9 15.3v11.42a6.21 6.21 0 0 0 6.2 6.2h11.42a6.21 6.21 0 0 0 6.2-6.2V15.3a6.21 6.21 0 0 0-6.2-6.2zm3 17.62a3 3 0 0 1-3 3H15.2a3 3 0 0 1-3-3V15.3a3 3 0 0 1 3-3h11.42a3 3 0 0 1 3 3z"/><rect class="jcls-1" x="17.08" y="17.18" width="7.66" height="7.66" rx=".76" ry=".76"/><rect class="jcls-1" x="36.77" y="36.98" width="6.45" height="6.45" rx="1.37" ry="1.37"/><rect class="jcls-1" x="44.04" y="43.45" width="6.45" height="6.45" rx="1.37" ry="1.37"/><rect class="jcls-1" x="51.42" y="36.98" width="6.45" height="6.45" rx="1.37" ry="1.37"/><rect class="jcls-1" x="36.77" y="50.04" width="6.45" height="6.45" rx="1.37" ry="1.37"/><rect class="jcls-1" x="51.42" y="50.04" width="6.45" height="6.45" rx="1.37" ry="1.37"/><path class="jcls-1" d="M26.62 34.84H15.2A6.21 6.21 0 0 0 9 41v11.46a6.21 6.21 0 0 0 6.2 6.2h11.42a6.21 6.21 0 0 0 6.2-6.2V41a6.21 6.21 0 0 0-6.2-6.16zm3 17.62a3 3 0 0 1-3 3H15.2a3 3 0 0 1-3-3V41a3 3 0 0 1 3-3h11.42a3 3 0 0 1 3 3z"/><rect class="jcls-1" x="17.08" y="42.92" width="7.66" height="7.66" rx=".76" ry=".76"/><path class="jcls-1" d="M52.81 9.1H41.4a6.21 6.21 0 0 0-6.2 6.2v11.42a6.21 6.21 0 0 0 6.2 6.2h11.41a6.21 6.21 0 0 0 6.2-6.2V15.3a6.21 6.21 0 0 0-6.2-6.2zm3 17.62a3 3 0 0 1-3 3H41.4a3 3 0 0 1-3-3V15.3a3 3 0 0 1 3-3h11.41a3 3 0 0 1 3 3z"/><rect class="jcls-1" x="43.28" y="17.18" width="7.66" height="7.66" rx=".76" ry=".76"/></symbol><symbol fill="none" viewBox="0 0 30 30" id="ic_ru" xmlns="http://www.w3.org/2000/svg"><g clip-path="url(#kclip0)" fill-rule="evenodd" clip-rule="evenodd"><path d="M.204 17.23a14.984 14.984 0 0 0 14.538 12.636h.523a14.984 14.984 0 0 0 14.53-12.636H.206z" fill="#EC1C24"/><path d="M0 15.029a14.926 14.926 0 0 1 1.321-6.133h27.358a14.958 14.958 0 0 1 .638 10.542H.638A14.997 14.997 0 0 1 0 15.028z" fill="#1B75BB"/><path d="M1.391 8.89a14.984 14.984 0 0 1 27.377 0H1.391z" fill="#F7F7F7"/></g><defs><clipPath id="kclip0"><path fill="#fff" d="M0 0h30v29.866H0z"/></clipPath></defs></symbol><symbol id="ic_spotpay" viewBox="0 0 68.03 68.03" xmlns="http://www.w3.org/2000/svg"><defs><style>.lcls-1{fill:#c4c4c4}</style></defs><path class="lcls-1" d="M61.89 28.1L56.67 15a1.72 1.72 0 0 0-1.58-1H13.22a1.7 1.7 0 0 0-1.63 1.21l-4 13.07a1.71 1.71 0 0 0 .08 1.21 7.07 7.07 0 0 0 3.5 3.41l.16.08V52.4A4.64 4.64 0 0 0 16 57h37a4.64 4.64 0 0 0 4.63-4.63V33.13l.18-.07a7.07 7.07 0 0 0 4-3.6 1.7 1.7 0 0 0 .08-1.36zM47.44 53.53h-8.18V41.15h8.17zm-32.37-20a7.6 7.6 0 0 0 4.31-1.69l.18-.15.18.15a7.82 7.82 0 0 0 9.75 0l.18-.14.18.14a7.82 7.82 0 0 0 9.72 0l.18-.14.18.14a7.83 7.83 0 0 0 9.83-.09l.18-.15.18.15A7.56 7.56 0 0 0 54 33.49h.24v17.77c0 1.44-.26 2.25-1.78 2.25h-1.61V39.44a1.7 1.7 0 0 0-1.71-1.71H37.56a1.71 1.71 0 0 0-1.71 1.71v14.09H16.68a1.67 1.67 0 0 1-1.85-1.67v-18.3zm36.38-5.44a1.71 1.71 0 0 0-3.05 0 4 4 0 0 1-3.61 2 4.06 4.06 0 0 1-3.56-1.92 1.71 1.71 0 0 0-3 0 4.24 4.24 0 0 1-7.1 0 1.71 1.71 0 0 0-3 0 4.24 4.24 0 0 1-7.12-.05 1.71 1.71 0 0 0-3 0 4 4 0 0 1-3.56 2 4.19 4.19 0 0 1-3.31-1.51l-.09-.11 3.39-11.16h39.49l4.48 11.23-.11.13a4.21 4.21 0 0 1-3.22 1.43 4 4 0 0 1-3.63-2.04z"/><path class="lcls-1" d="M20.12 49.89l10.23-.11A1.7 1.7 0 0 0 32 48.07v-8.63a1.71 1.71 0 0 0-1.71-1.71H20.1a1.71 1.71 0 0 0-1.7 1.71v8.74a1.7 1.7 0 0 0 1.73 1.71zm1.69-3.44v-5.3h6.81v5.23z"/></symbol><symbol viewBox="0 0 68.03 68.03" id="ic_tg" xmlns="http://www.w3.org/2000/svg"><path fill="#999a9d" d="M27.68 55.4l30.18-33.53-30.27 16.68.09 16.85z"/><path fill="#c4c4c4" d="M61.33 14.29L4.76 32.3l22.83 6.25 24.49 12.56 9.25-36.82z"/><path fill="#e6e8e9" d="M49.6 22.81L23.39 37.14l4.29 18.26 3.35-15.46L49.6 22.81z"/></symbol><symbol viewBox="0 0 47.01 46.8" id="ic_uz" xmlns="http://www.w3.org/2000/svg"><g data-name="Layer 2"><g data-name="Layer 1" fill-rule="evenodd"><path d="M.32 27A23.48 23.48 0 0 0 23.1 46.8h.82A23.48 23.48 0 0 0 46.69 27z" fill="#00a551"/><path d="M0 23.55a23.39 23.39 0 0 1 2.07-9.61h42.87a23.44 23.44 0 0 1 1 16.52H1a23.5 23.5 0 0 1-1-6.91z" fill="#f7f7f7"/><path d="M2.18 13.93a23.48 23.48 0 0 1 42.9 0z" fill="#00adee"/></g></g></symbol></svg>